<svg width="60" height="60" viewBox="0 0 60 60" fill="none" xmlns="http://www.w3.org/2000/svg">
<g clip-path="url(#clip0_4923_30)">
<path d="M23.1867 2.44141V4.88281C23.1853 5.18815 23.0386 5.48219 22.775 5.70779C22.5113 5.93339 22.1496 6.07444 21.7602 6.10352C21.5803 6.14912 21.3924 6.17219 21.2033 6.17188H15.391V11.2305H44.6027V6.19141H38.7904C38.6013 6.19214 38.4133 6.16906 38.2336 6.12305C37.8409 6.09252 37.4772 5.9482 37.2143 5.71858C36.9513 5.48896 36.8083 5.19074 36.8133 4.88281V2.44141H23.1867ZM11.512 24.0479C11.4089 23.9279 11.337 23.7934 11.3006 23.6518C11.2641 23.5102 11.2637 23.3644 11.2995 23.2227C11.3352 23.081 11.4063 22.9462 11.5088 22.826C11.6113 22.7057 11.7431 22.6024 11.8968 22.522C12.0504 22.4415 12.2229 22.3854 12.4043 22.357C12.5857 22.3285 12.7725 22.3282 12.954 22.3561C13.1356 22.384 13.3083 22.4395 13.4624 22.5195C13.6165 22.5995 13.7488 22.7024 13.8519 22.8223L14.6215 23.7109L17.6684 20.8203C17.9057 20.595 18.248 20.4524 18.6199 20.4241C18.9918 20.3957 19.363 20.4838 19.6517 20.6689C19.9404 20.8541 20.1231 21.1212 20.1595 21.4115C20.1958 21.7018 20.083 21.9915 19.8457 22.2168L15.6413 26.2207C15.549 26.3177 15.4344 26.4005 15.3034 26.4648C15.1504 26.5458 14.9784 26.6024 14.7972 26.6312C14.6161 26.6601 14.4294 26.6607 14.248 26.633C14.0665 26.6053 13.8939 26.5499 13.74 26.4699C13.5862 26.3899 13.4541 26.287 13.3514 26.167L11.512 24.0479ZM11.512 35.415C11.4081 35.2951 11.3354 35.1604 11.2982 35.0186C11.2609 34.8768 11.2599 34.7306 11.295 34.5885C11.3302 34.4463 11.4009 34.311 11.503 34.1902C11.6052 34.0693 11.7369 33.9654 11.8905 33.8843C12.2008 33.7205 12.5818 33.6595 12.9496 33.715C13.3175 33.7704 13.642 33.9375 13.8519 34.1797L14.6215 35.0684L17.6684 32.1729C17.7859 32.0613 17.9304 31.9689 18.0937 31.9009C18.2569 31.8329 18.4357 31.7907 18.6199 31.7766C18.8041 31.7625 18.99 31.7769 19.167 31.819C19.3441 31.861 19.5088 31.9298 19.6517 32.0215C19.7947 32.1132 19.9131 32.226 20.0002 32.3534C20.0873 32.4808 20.1414 32.6203 20.1595 32.7641C20.1775 32.9078 20.159 33.0529 20.1052 33.1911C20.0513 33.3292 19.9632 33.4578 19.8457 33.5693L15.6413 37.5977C15.551 37.6974 15.4362 37.782 15.3034 37.8467C15.15 37.9274 14.9777 37.9837 14.7963 38.0122C14.6149 38.0407 14.4281 38.0408 14.2466 38.0127C14.0651 37.9845 13.8926 37.9286 13.739 37.8482C13.5853 37.7677 13.4536 37.6643 13.3514 37.5439L11.512 35.415ZM11.512 47.2314C11.4089 47.1115 11.337 46.977 11.3006 46.8354C11.2641 46.6938 11.2637 46.548 11.2995 46.4063C11.3352 46.2646 11.4063 46.1298 11.5088 46.0096C11.6113 45.8893 11.7431 45.786 11.8968 45.7056C12.0504 45.6251 12.2229 45.569 12.4043 45.5406C12.5857 45.5121 12.7725 45.5118 12.954 45.5397C13.1356 45.5676 13.3083 45.6231 13.4624 45.7031C13.6165 45.7831 13.7488 45.886 13.8519 46.0059L14.6215 46.8994L17.6684 44.0039C17.9073 43.7786 18.2512 43.6366 18.6243 43.6091C18.9974 43.5816 19.3693 43.6709 19.658 43.8574C19.9467 44.0439 20.1287 44.3123 20.1639 44.6035C20.1991 44.8946 20.0846 45.1848 19.8457 45.4102L15.6413 49.4043C15.549 49.5013 15.4344 49.5841 15.3034 49.6484C15.1504 49.7294 14.9784 49.786 14.7972 49.8148C14.6161 49.8437 14.4294 49.8443 14.248 49.8166C14.0665 49.7889 13.8939 49.7335 13.74 49.6535C13.5862 49.5735 13.4541 49.4706 13.3514 49.3506L11.512 47.2314ZM14.6402 13.75C14.0122 13.7469 13.4105 13.5524 12.9635 13.208C12.9072 13.1641 12.8759 13.1201 12.8196 13.0762C12.4707 12.7435 12.2747 12.3292 12.2628 11.8994V9.41406H3.50365C3.45605 9.41253 3.40865 9.41968 3.36521 9.43493C3.32177 9.45019 3.28349 9.47314 3.25339 9.50195C3.18883 9.55535 3.14917 9.62414 3.14077 9.69727V57.2559C3.13466 57.2934 3.14194 57.3314 3.16181 57.3659C3.18169 57.4004 3.21338 57.4299 3.25339 57.4512C3.28538 57.4782 3.32403 57.4999 3.36703 57.515C3.41004 57.5301 3.4565 57.5383 3.50365 57.5391H56.5089C56.556 57.5383 56.6025 57.5301 56.6455 57.515C56.6885 57.4999 56.7271 57.4782 56.7591 57.4512C56.7981 57.4291 56.8291 57.3995 56.8488 57.3652C56.8686 57.331 56.8765 57.2933 56.8717 57.2559V9.69727C56.8633 9.62414 56.8237 9.55535 56.7591 9.50195C56.7287 9.47342 56.6904 9.45068 56.647 9.43545C56.6036 9.42022 56.5564 9.4129 56.5089 9.41406H47.7497V11.8994C47.7385 12.3302 47.5399 12.7451 47.1867 13.0762C47.1366 13.1201 47.1053 13.1641 47.049 13.208C46.602 13.5524 46.0003 13.7469 45.3723 13.75H14.6402ZM3.51616 60C2.58413 59.9987 1.69074 59.7092 1.03169 59.1948C0.372637 58.6805 0.00165402 57.9833 0 57.2559L0 9.69727C0.00165402 8.96987 0.372637 8.27264 1.03169 7.75829C1.69074 7.24394 2.58413 6.95442 3.51616 6.95312H12.2753V5.60059C12.2753 5.11063 12.5243 4.64066 12.9676 4.29375C13.4109 3.94684 14.0124 3.75129 14.6402 3.75H20.0584V2.05078C20.0596 1.78218 20.1294 1.51645 20.2636 1.26913C20.3979 1.02181 20.594 0.797856 20.8405 0.610352C21.0798 0.418385 21.3657 0.265544 21.6815 0.16075C21.9973 0.0559567 22.3367 0.00130996 22.6799 0L37.3201 0C37.6632 0.0018505 38.0024 0.0567427 38.3181 0.161505C38.6338 0.266266 38.9198 0.418821 39.1595 0.610352C39.4098 0.800719 39.6081 1.02863 39.7425 1.28038C39.8769 1.53212 39.9446 1.80248 39.9416 2.0752V3.75H45.3597C45.6711 3.75 45.9795 3.79787 46.2672 3.89087C46.5549 3.98387 46.8163 4.12018 47.0365 4.29202C47.2566 4.46387 47.4313 4.66787 47.5505 4.8924C47.6696 5.11692 47.731 5.35756 47.731 5.60059V6.95312H56.4901C57.4232 6.95312 58.3182 7.24208 58.9786 7.75657C59.639 8.27105 60.0109 8.96903 60.0125 9.69727V57.2559C60.0109 57.9841 59.639 58.6821 58.9786 59.1966C58.3182 59.711 57.4232 60 56.4901 60H3.51616ZM47.781 48.6328C48.1861 48.613 48.5662 48.4734 48.8441 48.2426C49.1219 48.0117 49.2766 47.7069 49.2766 47.3901C49.2766 47.0734 49.1219 46.7686 48.8441 46.5377C48.5662 46.3068 48.1861 46.1673 47.781 46.1475H26.6277C26.2227 46.1673 25.8425 46.3068 25.5647 46.5377C25.2869 46.7686 25.1322 47.0734 25.1322 47.3901C25.1322 47.7069 25.2869 48.0117 25.5647 48.2426C25.8425 48.4734 26.2227 48.613 26.6277 48.6328H47.781ZM47.781 24.8047C48.1861 24.7849 48.5662 24.6453 48.8441 24.4144C49.1219 24.1836 49.2766 23.8787 49.2766 23.562C49.2766 23.2453 49.1219 22.9404 48.8441 22.7096C48.5662 22.4787 48.1861 22.3392 47.781 22.3193H26.6277C26.2227 22.3392 25.8425 22.4787 25.5647 22.7096C25.2869 22.9404 25.1322 23.2453 25.1322 23.562C25.1322 23.8787 25.2869 24.1836 25.5647 24.4144C25.8425 24.6453 26.2227 24.7849 26.6277 24.8047H47.781ZM47.781 36.5576C48.1861 36.5378 48.5662 36.3982 48.8441 36.1674C49.1219 35.9365 49.2766 35.6317 49.2766 35.3149C49.2766 34.9982 49.1219 34.6934 48.8441 34.4625C48.5662 34.2316 48.1861 34.0921 47.781 34.0723H26.6277C26.2227 34.0921 25.8425 34.2316 25.5647 34.4625C25.2869 34.6934 25.1322 34.9982 25.1322 35.3149C25.1322 35.6317 25.2869 35.9365 25.5647 36.1674C25.8425 36.3982 26.2227 36.5378 26.6277 36.5576H47.781Z" fill="#2876D7"/>
</g>
<defs>
<clipPath id="clip0_4923_30">
<rect width="60" height="60" fill="white"/>
</clipPath>
</defs>
</svg>
