<svg width="60" height="60" viewBox="0 0 60 60" fill="none" xmlns="http://www.w3.org/2000/svg">
<path d="M34.0625 2.03051C34.0625 0.915229 35.1367 0 36.4795 0C37.8223 0 38.8965 0.905226 38.8965 2.03051V10.9027C38.8965 12.018 37.8223 12.9332 36.4795 12.9332C35.1367 12.9332 34.0625 12.028 34.0625 10.9027V2.03051ZM7.0166 39.0348H12.5537C12.9053 39.0348 13.1934 39.3298 13.1934 39.6899V43.881C13.1934 44.2411 12.9053 44.5361 12.5537 44.5361H7.0166C6.66504 44.5361 6.37695 44.2411 6.37695 43.881V39.6899C6.37695 39.3248 6.66504 39.0348 7.0166 39.0348ZM28.2178 27.0918H33.7549C33.9258 27.0918 34.0771 27.1618 34.1943 27.2718C32.0215 28.6622 30.1367 30.4726 28.6426 32.5982H28.2178C27.8662 32.5982 27.5781 32.3031 27.5781 31.943V27.7519C27.5781 27.3868 27.8662 27.0918 28.2178 27.0918ZM17.6172 27.0918H23.1543C23.5059 27.0918 23.7939 27.3868 23.7939 27.7469V31.938C23.7939 32.2981 23.5059 32.5931 23.1543 32.5931H17.6172C17.2656 32.5931 16.9775 32.2981 16.9775 31.938V27.7469C16.9775 27.3868 17.2656 27.0918 17.6172 27.0918ZM7.0166 27.0918H12.5537C12.9053 27.0918 13.1934 27.3868 13.1934 27.7469V31.938C13.1934 32.2981 12.9053 32.5931 12.5537 32.5931H7.0166C6.66504 32.5931 6.37695 32.2981 6.37695 31.938V27.7469C6.37695 27.3868 6.66504 27.0918 7.0166 27.0918ZM17.6172 39.0348H23.1543C23.5059 39.0348 23.7939 39.3298 23.7939 39.6899V43.881C23.7939 44.2411 23.5059 44.5361 23.1543 44.5361H17.6172C17.2656 44.5361 16.9775 44.2411 16.9775 43.881V39.6899C16.9775 39.3248 17.2656 39.0348 17.6172 39.0348ZM50.5322 29.7774C56.25 32.2031 60 37.9195 60 44.2911C60 48.6272 58.2813 52.5581 55.5078 55.3989C52.7344 58.2396 48.9014 60 44.6631 60C40.4297 60 36.5967 58.2396 33.8184 55.3989C31.0449 52.5531 29.3262 48.6272 29.3262 44.2911C29.3262 37.9695 33.1641 32.073 38.8721 29.6724C42.4121 28.192 47.0166 28.2821 50.5322 29.7774ZM42.3047 43.871C42.4951 43.6559 42.7295 43.4709 42.9834 43.3308V36.4991C42.9834 35.804 43.5352 35.2388 44.2139 35.2388C44.8926 35.2388 45.4492 35.804 45.4492 36.4991V43.3308C45.8984 43.5809 46.2695 43.956 46.5088 44.4161H51.2744C51.958 44.4161 52.5049 44.9812 52.5049 45.6764C52.5049 46.3716 51.9531 46.9367 51.2744 46.9367H46.5088C46.0693 47.7769 45.21 48.3471 44.2139 48.3471C43.4326 48.3471 42.7344 47.992 42.2559 47.4369C41.3721 46.4016 41.416 44.8562 42.3047 43.871ZM53.7695 35.2138C47.417 28.7072 36.7041 30.5476 32.9883 38.7397C32.2266 40.4251 31.7969 42.3056 31.7969 44.2861C31.7969 47.927 33.2373 51.2228 35.5664 53.6084C37.8955 55.994 41.1133 57.4694 44.668 57.4694C48.2227 57.4694 51.4404 55.989 53.7695 53.6084C56.0986 51.2228 57.5391 47.927 57.5391 44.2861C57.5391 42.2206 57.0752 40.2651 56.25 38.5246C55.6201 37.2093 54.7803 36.2491 53.7695 35.2138ZM12.3682 2.03051C12.3682 0.915229 13.4424 0 14.7852 0C16.123 0 17.2021 0.905226 17.2021 2.03051V10.9027C17.2021 12.018 16.123 12.9332 14.7852 12.9332C13.4473 12.9332 12.3682 12.028 12.3682 10.9027V2.03051ZM2.66113 19.3999H48.6621V9.1873C48.6621 8.83721 48.5254 8.53213 48.3057 8.30708C48.0859 8.08202 47.7734 7.94199 47.4463 7.94199H43.0371C42.2998 7.94199 41.6992 7.32683 41.6992 6.57164C41.6992 5.81645 42.2998 5.2013 43.0371 5.2013H47.4463C48.5254 5.2013 49.4971 5.64641 50.2051 6.37159C50.9131 7.09677 51.3477 8.09202 51.3477 9.1973V25.4164C50.4688 25.1063 49.5654 24.8562 48.6328 24.6712V22.1355H48.6621H2.66113V48.5972C2.66113 48.9472 2.79785 49.2523 3.01758 49.4774C3.2373 49.7024 3.5498 49.8425 3.87695 49.8425H25.7373C25.9863 50.7927 26.2988 51.7229 26.6748 52.6132H3.90137C2.82715 52.6132 1.85059 52.168 1.14258 51.4429C0.43457 50.7127 0 49.7224 0 48.6172V9.1973C0 8.09702 0.43457 7.10178 1.14258 6.37159C1.85059 5.64641 2.82227 5.2013 3.90137 5.2013H8.6084C9.3457 5.2013 9.94629 5.81645 9.94629 6.57164C9.94629 7.32683 9.3457 7.94199 8.6084 7.94199H3.90137C3.55957 7.94199 3.26172 8.08202 3.04199 8.30708C2.82227 8.53213 2.68555 8.85221 2.68555 9.1873V19.4049H2.66113V19.3999ZM21.0596 7.93698C20.3223 7.93698 19.7217 7.32183 19.7217 6.56664C19.7217 5.81145 20.3223 5.1963 21.0596 5.1963H30.0391C30.7764 5.1963 31.377 5.81145 31.377 6.56664C31.377 7.32183 30.7764 7.93698 30.0391 7.93698H21.0596Z" fill="#2876D7"/>
</svg>
