<svg width="60" height="61" viewBox="0 0 60 61" fill="none" xmlns="http://www.w3.org/2000/svg">
<path d="M28.3738 2.6991C28.7248 1.79519 29.3737 1.06606 30.1935 0.654362C31.1187 0.224167 32.1538 0.161432 33.1174 0.477152C34.1322 0.789997 35.0808 1.31561 35.9096 2.02433C37.4052 3.33624 38.6321 4.973 39.5116 6.82977C40.3911 8.68654 40.9039 10.7224 41.0172 12.8069C41.108 14.3967 41.087 15.9916 40.9544 17.5779C40.8728 18.6957 40.7411 19.8749 40.5591 21.0949H51.182C52.8497 21.1502 54.4859 21.6015 55.9758 22.4171C57.1607 23.066 58.1736 24.0325 58.9186 25.2253C59.6865 26.4993 60.0622 28.0052 59.9916 29.526C59.9219 30.903 59.5953 32.2503 59.0316 33.486C59.4083 35.0416 59.5063 36.6613 59.3202 38.257C59.1747 39.4817 58.6607 40.6199 57.8582 41.4945C57.9202 43.3253 57.6626 45.1523 57.099 46.879C56.5823 48.3867 55.7759 49.7575 54.7335 50.9003C54.6555 51.8701 54.498 52.8304 54.2629 53.7697C53.9918 54.872 53.5459 55.9146 52.9452 56.8505C51.1381 59.6177 49.695 59.5768 47.411 59.4473C47.091 59.4473 46.7835 59.4473 46.2251 59.4473H25.5189C23.9145 59.5181 22.3179 59.1698 20.8631 58.4317C19.4235 57.5849 18.1742 56.4025 17.205 54.9693L16.9415 53.981V27.7744L17.9956 27.4676C20.6435 26.6702 22.7392 24.2097 24.3769 21.2176C25.9333 18.2139 27.161 15.0229 28.035 11.7096V4.89378C27.961 4.13569 28.0781 3.37002 28.3738 2.67865V2.6991ZM2.12083 25.0344H12.3798C12.6592 25.0353 12.9356 25.096 13.1934 25.2129C13.4511 25.3298 13.6851 25.5008 13.8821 25.716C14.079 25.9312 14.235 26.1864 14.3411 26.467C14.4473 26.7477 14.5015 27.0483 14.5006 27.3518V57.9751C14.499 58.5855 14.275 59.1704 13.8776 59.6021C13.4803 60.0337 12.9418 60.277 12.3798 60.2788H2.12083C1.84149 60.2779 1.56506 60.2173 1.3073 60.1003C1.04955 59.9834 0.815518 59.8124 0.618581 59.5973C0.421645 59.3821 0.265656 59.1268 0.159521 58.8462C0.0533862 58.5655 -0.000815928 58.2649 9.28267e-06 57.9614V27.3518C-0.000815928 27.0483 0.0533862 26.7477 0.159521 26.467C0.265656 26.1864 0.421645 25.9312 0.618581 25.716C0.815518 25.5008 1.04955 25.3298 1.3073 25.2129C1.56506 25.096 1.84149 25.0353 2.12083 25.0344ZM31.3731 3.40794C31.2303 3.50662 31.1096 3.63853 31.0195 3.79413C30.9294 3.94972 30.8723 4.12511 30.8523 4.30762V11.9481L30.7895 12.3843C29.8441 16.0218 28.5 19.5229 26.7863 22.8125C25.0169 25.9886 22.7267 28.7763 19.7462 30.0781V53.4698C20.3951 54.3808 21.2113 55.1352 22.1431 55.685C23.211 56.2016 24.3767 56.4352 25.544 56.3666H46.2502C46.6204 56.3666 47.0973 56.3665 47.549 56.4074C48.9044 56.462 49.7577 56.5029 50.6863 55.0988C51.0981 54.4478 51.4018 53.7235 51.5836 52.9587C51.8143 52.0344 51.9552 51.0863 52.004 50.1301L52.437 49.1214C53.3485 48.2135 54.0513 47.0859 54.4888 45.8294C54.9866 44.2347 55.1726 42.5447 55.0347 40.8675L54.9845 39.961L55.6935 39.4839C55.9425 39.283 56.1487 39.0263 56.2982 38.731C56.4476 38.4358 56.5367 38.1091 56.5594 37.7731C56.6984 36.3977 56.5767 35.006 56.2017 33.6836L56.3147 32.5727C56.8112 31.5944 57.1066 30.5108 57.1806 29.3965C57.2214 28.5093 57.0016 27.631 56.5531 26.8883C56.0723 26.1339 55.4251 25.5223 54.6707 25.1094C53.5717 24.5115 52.3666 24.179 51.1381 24.1347H37.1834L37.4971 22.3217C37.7983 20.5633 38.0179 18.9138 38.1246 17.2985C38.2462 15.8642 38.2692 14.4221 38.1936 12.9841C38.1085 11.3361 37.708 9.72538 37.0176 8.25491C36.3273 6.78445 35.3622 5.4865 34.1841 4.44394C33.6522 3.98071 33.0428 3.63355 32.3896 3.42157C32.0539 3.29745 31.6899 3.29745 31.3543 3.42157L31.3731 3.40794Z" fill="#2876D7"/>
</svg>
