<svg width="60" height="60" viewBox="0 0 60 60" fill="none" xmlns="http://www.w3.org/2000/svg">
<path fill-rule="evenodd" clip-rule="evenodd" d="M39.9365 54.4083C40.1364 54.7626 40.2444 55.17 40.249 55.5866C40.249 57.7613 37.1826 59.5234 33.4131 59.5234C29.6435 59.5234 26.5771 57.7613 26.5771 55.5866C26.5832 55.1702 26.6911 54.7633 26.8896 54.4083C27.7637 56.0151 30.3564 57.1721 33.4228 57.1721C36.4892 57.1721 39.0918 56.0098 39.9609 54.4083H39.9365ZM42.9101 29.6573L42.2705 25.7098L40.8056 24.5583L37.3193 23.8727C37.4365 24.0816 37.5586 24.2851 37.6806 24.4886C38.3045 25.4131 38.7724 26.4525 39.0625 27.5577C39.375 29.1646 38.8183 30.5411 36.3525 31.5159C36.4209 31.5641 36.4941 31.6124 36.5625 31.6713C37.539 32.4801 37.7539 33.6691 35.6592 36.6739L35.2002 37.3328C34.605 37.2633 34.0068 37.2293 33.4082 37.231C33.208 37.231 33.0029 37.231 32.7978 37.231C33.1982 36.6311 33.623 35.9991 34.082 35.3456C35.1807 33.7388 35.3906 33.4174 35.3564 33.3906C35.2283 33.3057 35.0925 33.2357 34.9512 33.1817C34.2724 32.8764 33.5303 32.539 33.1787 31.441C33.1595 31.3867 33.1432 31.3312 33.1299 31.2749C33.102 31.1359 33.0997 30.9922 33.1231 30.8522C33.1464 30.7122 33.195 30.5787 33.2659 30.4596C33.3368 30.3404 33.4287 30.2379 33.5361 30.1581C33.6435 30.0783 33.7644 30.0228 33.8916 29.9948C36.5869 29.3735 37.251 28.72 37.1142 27.9916C36.851 27.1723 36.4738 26.4026 35.9961 25.7098C35.4417 24.8319 34.9659 23.8974 34.5752 22.9193C34.4839 22.7385 34.4422 22.5327 34.4552 22.3265C34.4681 22.1204 34.5352 21.9227 34.6482 21.7574C34.7612 21.5921 34.9154 21.4662 35.0922 21.3949C35.269 21.3235 35.4608 21.3097 35.6445 21.3553L41.3379 22.4961C41.4821 22.5232 41.6189 22.5854 41.7383 22.6782L43.6914 24.1833C43.8191 24.2611 43.9293 24.3694 44.0138 24.5001C44.0983 24.6308 44.155 24.7806 44.1797 24.9385L44.7851 28.6504C44.3799 28.8325 43.9941 29.0307 43.6328 29.2396C43.3935 29.3788 43.1445 29.5234 42.9346 29.6734L42.9101 29.6573ZM23.125 42.1801V42.0194C23.1222 41.7174 23.0778 41.4177 22.9931 41.1303C22.8793 40.7479 22.7287 40.3798 22.5439 40.0323C22.29 39.5502 22.1045 39.1592 21.9726 38.8646C21.8195 38.5492 21.7265 38.203 21.6992 37.847C21.6992 36.0633 21.1426 35.6723 20.3711 35.6723C19.859 35.6901 19.3485 35.7437 18.8428 35.833C18.1576 35.952 17.4659 36.02 16.7724 36.0366C16.1876 36.0049 15.6366 35.7267 15.2344 35.2599C14.7846 34.7638 14.3956 34.2057 14.0771 33.5995C13.7158 32.946 13.4424 32.4211 13.2568 32.0248C13.0514 31.6427 12.9217 31.2175 12.876 30.7768V29.9359C12.8467 26.915 12.8222 24.0441 15.4834 21.9444C16.6015 20.2251 17.5781 19.111 18.7744 18.404C19.9707 17.697 21.4013 17.4024 23.2715 17.4024C23.5305 17.4024 23.7789 17.5153 23.962 17.7161C24.1451 17.917 24.248 18.1895 24.248 18.4736V20.0162L25.4394 20.5893V20.5036C25.4643 20.3625 25.5148 20.2283 25.588 20.109C25.6611 19.9897 25.7554 19.8878 25.8652 19.8093C25.975 19.7309 26.0981 19.6775 26.2271 19.6523C26.3561 19.6271 26.4884 19.6306 26.6162 19.6627C26.9573 19.7421 27.2933 19.8459 27.6221 19.9734C27.9186 20.091 28.2033 20.2417 28.4717 20.4233C28.6653 20.5395 28.8775 20.614 29.0967 20.6429C29.3954 20.7016 29.7013 20.7016 30 20.6429C30.1029 20.6317 30.2018 20.5931 30.2881 20.5304V20.4929C30.3125 20.3322 30.332 20.1662 30.3515 20.0001L29.1748 20.118C28.9734 20.1381 28.7713 20.0891 28.5964 19.9778C28.4214 19.8665 28.2823 19.6984 28.1982 19.4967C27.8125 18.5968 26.9873 18.1362 25.957 17.5577C24.5565 16.8407 23.2666 15.8884 22.1338 14.735C17.417 16.6043 15.9033 16.8721 15.5224 15.7152C15.2978 15.0296 15.6201 14.4886 16.0498 13.7548C16.4795 13.021 16.9971 12.148 16.9971 11.2642C16.9941 11.0385 17.0563 10.8175 17.1747 10.6328C17.293 10.4481 17.4616 10.3092 17.6562 10.2358L21.6553 8.2326C21.2256 8.15225 20.6787 8.04513 20.249 5.68841C20.2021 5.46046 20.2244 5.22193 20.3126 5.00918C20.4007 4.79644 20.5499 4.62115 20.7373 4.51005C21.1219 4.27811 21.4951 4.02423 21.8555 3.74947C22.2803 3.43345 22.7881 3.02638 23.3838 2.52826L23.4375 2.51754C21.4219 2.85837 19.4534 3.47559 17.5781 4.35472C16.0418 5.07078 14.5704 5.94413 13.1836 6.96318C11.8323 7.95363 10.5745 9.0894 9.42869 10.3536C8.28009 11.6076 7.248 12.9838 6.34764 14.4618C5.42202 15.9836 4.62913 17.5976 3.97947 19.2824V19.3306C3.32741 21.0091 2.83648 22.7575 2.51463 24.5475C1.85188 28.2616 1.85188 32.0814 2.51463 35.7955C2.51463 35.8919 2.54881 35.9937 2.56834 36.0901L7.16307 38.5004C7.32721 38.5849 7.46669 38.7178 7.56586 38.8843C7.66503 39.0508 7.72 39.2443 7.72459 39.4431C7.73413 40.6805 7.50794 41.9065 7.06053 43.0425C6.7428 43.8767 6.54672 44.7605 6.47948 45.6616C6.47434 45.7639 6.45627 45.8648 6.42576 45.9616C7.31627 47.4014 8.32998 48.7448 9.45311 49.9734C10.5914 51.2343 11.841 52.3683 13.1836 53.3585C14.5714 54.3727 16.0427 55.2424 17.5781 55.9562H17.6221C19.1388 56.6661 20.7176 57.2045 22.334 57.5631C22.5614 58.4399 22.9356 59.2627 23.4375 59.9894C22.9492 59.9144 22.4609 59.818 21.9726 59.7109C20.2094 59.3233 18.4867 58.7401 16.831 57.9701H16.7773C15.1387 57.2028 13.5693 56.2685 12.0898 55.1796C10.632 54.1101 9.27444 52.8847 8.03709 51.5213C6.79421 50.164 5.67709 48.6748 4.70213 47.0757C3.71129 45.4515 2.85968 43.7302 2.15819 41.9337C1.43828 40.0938 0.89499 38.1767 0.537092 36.2133C-0.178461 32.2147 -0.178461 28.1016 0.537092 24.103C0.889525 22.1662 1.42294 20.2744 2.12889 18.4576C2.12687 18.438 2.12687 18.4182 2.12889 18.3986C2.83038 16.6022 3.682 14.8809 4.67283 13.2567C5.6493 11.6588 6.7663 10.1698 8.00779 8.81106C9.24515 7.44769 10.6027 6.22226 12.0605 5.15279C13.5401 4.06387 15.1094 3.12959 16.748 2.36221C20.144 0.777755 23.7999 -0.0261558 27.4902 0.000136413C29.3426 -0.00358169 31.1908 0.193773 33.0078 0.589317C34.7735 0.975511 36.4981 1.56065 38.1543 2.33543H38.208C39.8457 3.10493 41.4149 4.03911 42.8955 5.12601C44.3522 6.19713 45.7096 7.42243 46.9482 8.78428C48.1897 10.143 49.3067 11.632 50.2832 13.2299C51.274 14.8541 52.1256 16.5754 52.8271 18.3719C53.5457 20.2155 54.0874 22.1363 54.4433 24.103C54.6499 25.2372 54.7966 26.3835 54.8828 27.5363C53.8006 27.3327 52.7045 27.2306 51.6064 27.231H51.3232C51.3845 26.86 51.4661 26.4933 51.5674 26.133C51.6756 25.7313 51.8511 25.3553 52.0849 25.0242C51.9378 23.9909 51.7357 22.9679 51.4795 21.9605C51.1683 20.7515 50.7749 19.5699 50.3027 18.4254C49.3759 16.154 48.1718 14.0314 46.7236 12.1158C46.0088 11.1729 45.2337 10.2869 44.4043 9.46452C43.5663 8.63258 42.6772 7.86483 41.7431 7.16671C40.8071 6.46217 39.8283 5.82867 38.8135 5.27062C37.8795 4.75583 36.9174 4.30504 35.9326 3.92087C32.2265 4.86355 31.1767 4.28509 29.9951 3.68519C29.1783 3.21774 28.2643 2.99249 27.3437 3.03174H26.4844C26.295 3.07557 26.1146 3.15728 25.9521 3.27277C25.4706 3.569 25.0117 3.90755 24.5801 4.28509C23.9941 4.77785 23.4521 5.20635 22.959 5.57057C22.6693 5.78482 22.4056 5.96336 22.168 6.10619C22.6562 6.22402 23.0029 6.55075 23.2519 8.97711C23.2774 9.20464 23.2356 9.43514 23.1328 9.63471C23.03 9.83428 22.8715 9.99241 22.6806 10.0858L18.9209 11.9659C18.7056 13.0285 18.2935 14.0313 17.7099 14.9118C17.7025 14.9279 17.6905 14.941 17.6758 14.9493C19.0145 13.9143 20.479 13.0903 22.0264 12.5015C22.2122 12.4101 22.4194 12.3847 22.619 12.4289C22.8186 12.4731 23.0006 12.5846 23.1396 12.7479C24.2182 13.9512 25.4872 14.9294 26.8848 15.6348C28.0371 16.2776 28.9892 16.8079 29.668 17.9059L31.2744 17.7452C31.3329 17.7399 31.3917 17.7399 31.4502 17.7452C31.7092 17.7452 31.9576 17.858 32.1407 18.0589C32.3239 18.2598 32.4267 18.5323 32.4267 18.8164C32.4267 19.1539 32.4267 19.502 32.3828 19.8555C32.3651 20.2018 32.3309 20.5469 32.2803 20.8893C32.2826 20.9034 32.2826 20.918 32.2803 20.9321C32.2384 21.2171 32.1419 21.4891 31.9971 21.7302C31.8158 22.0174 31.5828 22.2606 31.3123 22.4449C31.0419 22.6292 30.7398 22.7505 30.4248 22.8014C29.8858 22.9112 29.3329 22.9112 28.7939 22.8014C28.3156 22.7212 27.8561 22.5392 27.4414 22.2658C27.3617 22.2111 27.2784 22.1628 27.1924 22.1212L27.1435 22.3569C27.1285 22.4279 27.1089 22.4977 27.0849 22.5658C27.0346 22.6986 26.9603 22.819 26.8666 22.9196C26.7729 23.0203 26.6616 23.0993 26.5395 23.1518C26.4174 23.2042 26.2869 23.2292 26.1557 23.2252C26.0246 23.2211 25.8956 23.1881 25.7764 23.1282L22.9492 21.7784C22.7536 21.706 22.584 21.5674 22.4647 21.3826C22.3454 21.1979 22.2825 20.9764 22.2851 20.75V19.6198C21.392 19.64 20.5143 19.8798 19.7168 20.3215C18.7988 20.8571 17.9931 21.8052 17.041 23.3049C16.9682 23.4327 16.8717 23.5422 16.7578 23.6263C14.8047 25.0885 14.8389 27.4345 14.8584 29.9252C14.8584 30.4233 14.8584 30.6268 14.8584 30.7768C14.8584 30.8303 14.9121 30.8143 15.0146 31.0392C15.1806 31.3927 15.4346 31.8748 15.7666 32.4801C15.9963 32.9164 16.277 33.3179 16.6015 33.6745L16.7822 33.8566C17.3873 33.8407 17.9908 33.7817 18.5889 33.6798C19.1818 33.5753 19.7805 33.5145 20.3808 33.4977C22.3096 33.4977 23.7012 34.2797 23.7012 37.847C23.7012 37.9112 23.7256 37.8095 23.7793 37.938C23.8916 38.1897 24.0576 38.5325 24.2676 38.961C24.4707 39.3479 24.6438 39.7529 24.7851 40.1715C24.1395 40.7397 23.5793 41.4157 23.125 42.1747V42.1801ZM4.33104 41.1089C4.54588 41.6445 4.78514 42.1801 5.03904 42.7157C5.08299 42.5765 5.12694 42.4372 5.17576 42.3033C5.43036 41.6157 5.60587 40.896 5.69822 40.1608L3.61326 39.0896C3.82322 39.7645 4.06248 40.4447 4.33104 41.1196V41.1089ZM45.4101 28.3879L47.417 24.4404C47.4947 24.2335 47.6295 24.0584 47.8026 23.9399C47.9756 23.8213 48.1782 23.7652 48.3818 23.7793C48.5854 23.7935 48.7799 23.8773 48.9379 24.0189C49.0959 24.1606 49.2095 24.3529 49.2627 24.569L50.0391 27.3167C48.4599 27.4493 46.9035 27.8095 45.4101 28.3879ZM17.3779 14.9975C17.417 15.1153 17.5 15.1046 17.6611 14.9975H17.3779ZM59.6142 53.0264C59.8616 53.4584 59.9951 53.9571 60 54.4672C60 57.1453 56.2402 59.2878 51.6064 59.2878C46.9726 59.2878 43.2178 57.1453 43.2178 54.4672C43.2246 53.9582 43.3562 53.4605 43.5986 53.0264C44.668 54.9868 47.8516 56.4061 51.6064 56.4061C55.3613 56.4061 58.5547 54.9868 59.6142 53.0264ZM59.6142 47.1881C59.861 47.6224 59.9945 48.1226 60 48.6343C60 51.3124 56.2402 53.4549 51.6064 53.4549C46.9726 53.4549 43.2178 51.3124 43.2178 48.6343C43.2252 48.1237 43.3567 47.6245 43.5986 47.1881C44.668 49.1485 47.8516 50.5732 51.6064 50.5732C55.3613 50.5732 58.5547 49.1485 59.6142 47.1881ZM54.6387 35.0189L54.541 36.2133L50.4248 35.8223C50.7618 36.2962 51.0016 36.8443 51.1279 37.4292L50.1514 37.3328C50.057 36.9507 49.9052 36.5887 49.7021 36.2615C49.4901 35.9005 49.1862 35.6156 48.8281 35.442L48.9062 34.4726L54.6338 35.0082L54.6387 35.0189ZM51.6064 33.1442C55.415 33.1442 58.5058 34.4726 58.5058 36.1115C58.5058 37.7505 55.415 39.1003 51.6064 39.1003C47.7978 39.1003 44.7119 37.7666 44.7119 36.133C44.7119 34.4993 47.8027 33.1656 51.6064 33.1656V33.1442ZM51.6064 32.1587C56.2402 32.1587 60 34.3012 60 36.9792C60 39.6573 56.2402 41.7998 51.6064 41.7998C46.9726 41.7998 43.2178 39.6573 43.2178 36.9792C43.2178 34.3012 46.9775 32.1587 51.6064 32.1587ZM59.6435 41.5106C59.8717 41.9305 59.9946 42.409 60 42.8978C60 45.5759 56.2402 47.7184 51.6064 47.7184C46.9726 47.7184 43.2178 45.5759 43.2178 42.8978C43.22 42.4086 43.3432 41.9291 43.5742 41.5106C44.6045 43.4977 47.8125 44.9546 51.6064 44.9546C55.4004 44.9546 58.5937 43.4977 59.6435 41.5106ZM35.874 44.4886L35.7959 45.4634L32.4316 45.1421C32.71 45.5333 32.9067 45.9867 33.0078 46.4704L32.2265 46.3901C32.1396 46.0814 32.0077 45.7902 31.8359 45.5277C31.6691 45.2294 31.4264 44.9911 31.1377 44.8421L31.2012 44.0494L35.874 44.494V44.4886ZM33.3984 42.9568C36.5088 42.9568 39.0283 44.028 39.0283 45.3778C39.0283 46.7275 36.5088 47.7987 33.3984 47.7987C30.2881 47.7987 27.7734 46.7275 27.7734 45.3778C27.7734 44.028 30.2734 42.9568 33.3984 42.9568ZM33.3984 42.1533C37.1826 42.1533 40.2344 43.9209 40.2344 46.0901C40.2344 48.2594 37.168 50.0323 33.3984 50.0323C29.6289 50.0323 26.5625 48.2647 26.5625 46.0901C26.5625 43.9155 29.6289 42.1533 33.3984 42.1533ZM39.9609 49.8127C40.1451 50.1554 40.2444 50.545 40.249 50.9428C40.249 53.1174 37.1826 54.885 33.4131 54.885C29.6435 54.885 26.5771 53.1174 26.5771 50.9428C26.5757 50.5455 26.6718 50.1551 26.8555 49.8127C27.7002 51.4195 30.3174 52.6247 33.4131 52.6247C36.5088 52.6247 39.1162 51.4195 39.9609 49.8127Z" fill="#2876D7"/>
</svg>
